# xmcd
# 
# Track frame offsets:
#     183
#     14313
#     27815
#     41935
#     55683
#     68260
#     79730
#     94360
#     108448
#     121153
#     135695
#     151790
#     172288
#     187495
#     203033
#     217608
#     234838
#     255403
# 
# Disc length: 3609
# 
# Revision: 4
# Processed by: cddbd v1.5.2PL0 Copyright (c) Steve Scherf et al.
# Submitted via: BonkEnc v1.0beta4
# 
DISCID=ea0e1712
DTITLE=Count Basie - Jazz and Blues collection CD 8
DYEAR=1938
DGENRE=Jazz
TTITLE0=Topsy
TTITLE1=Honeysuckle rose
TTITLE2=Jumpin' at the woodside
TTITLE3=One o'clock jump
TTITLE4=Swingin' at the Daisy chain
TTITLE5=Roseland shuffle
TTITLE6=Blue and sentimental
TTITLE7=Texas shuffle
TTITLE8=Pannasie stomp
TTITLE9=You can depend on me
TTITLE10=Vine street rumble
TTITLE11=Night in Tunisia
TTITLE12=Everyday I have the blues
TTITLE13=I got rhythm
TTITLE14=Wee baby blues
TTITLE15=Stormy monday blues
TTITLE16=Basie's
TTITLE17=The magic flea
EXTD=
EXTT0=
EXTT1=
EXTT2=
EXTT3=
EXTT4=
EXTT5=
EXTT6=
EXTT7=
EXTT8=
EXTT9=
EXTT10=
EXTT11=
EXTT12=
EXTT13=
EXTT14=
EXTT15=
EXTT16=
EXTT17=
PLAYORDER=
